<?xml version="1.0" encoding="UTF-8"?><svg id="uuid-f7163b95-f8a2-4e49-b7ab-bc8e3ec411ae" xmlns="http://www.w3.org/2000/svg" width="644.91" height="469.73" viewBox="0 0 644.91 469.73"><g id="uuid-e372e1e6-7f6d-4213-bade-03a27802be08"><path d="m41.28,398.7c-2.18-1.15-4.53-2.12-7.05-2.92-2.52-.8-4.96-1.2-7.31-1.2-3.21,0-5.76.73-7.65,2.19-1.89,1.46-2.84,3.46-2.84,5.98,0,1.78.63,3.33,1.89,4.64,1.26,1.32,2.89,2.47,4.9,3.44,2.01.98,4.13,1.89,6.36,2.75,1.89.69,3.77,1.5,5.63,2.45,1.86.95,3.55,2.11,5.07,3.48,1.52,1.38,2.72,3.08,3.61,5.12.89,2.04,1.33,4.51,1.33,7.44,0,3.33-.82,6.34-2.45,9.03-1.63,2.7-3.99,4.83-7.05,6.41-3.07,1.58-6.78,2.37-11.14,2.37-2.64,0-5.2-.3-7.7-.9-2.49-.6-4.85-1.4-7.05-2.41-2.21-1-4.2-2.11-5.98-3.31l4.13-7.14c1.38.98,2.95,1.91,4.73,2.79,1.78.89,3.63,1.59,5.55,2.11,1.92.52,3.74.77,5.46.77,1.89,0,3.75-.33,5.59-.99,1.83-.66,3.35-1.69,4.56-3.1,1.2-1.4,1.81-3.25,1.81-5.55,0-1.95-.53-3.6-1.59-4.94-1.06-1.35-2.47-2.51-4.21-3.48-1.75-.97-3.63-1.83-5.63-2.58-1.95-.74-3.93-1.58-5.93-2.49-2.01-.92-3.87-2.02-5.59-3.31s-3.11-2.89-4.17-4.82c-1.06-1.92-1.59-4.29-1.59-7.09,0-3.32.79-6.24,2.37-8.73,1.58-2.49,3.77-4.46,6.58-5.89,2.81-1.43,6.05-2.24,9.72-2.41,4.18,0,7.83.52,10.92,1.55,3.1,1.03,5.85,2.27,8.26,3.7l-3.53,7.05Z" style="fill:#4379c9; stroke-width:0px;"/><path d="m53.92,386.74h41.62v8.86h-16.43v53.58h-9.2v-53.58h-16v-8.86Z" style="fill:#4379c9; stroke-width:0px;"/><path d="m125.64,386.74c3.27,0,6.29.44,9.07,1.33,2.78.89,5.16,2.16,7.14,3.83,1.98,1.66,3.53,3.71,4.64,6.15,1.12,2.44,1.68,5.26,1.68,8.47,0,2.47-.37,4.9-1.12,7.31-.75,2.41-1.95,4.59-3.61,6.54-1.66,1.95-3.84,3.51-6.54,4.69-2.7,1.18-6.05,1.76-10.06,1.76h-9.12v22.36h-9.2v-62.44h17.11Zm1.03,31.3c2.35,0,4.31-.37,5.89-1.12,1.58-.74,2.81-1.68,3.7-2.79.89-1.12,1.52-2.32,1.89-3.61.37-1.29.56-2.54.56-3.74s-.19-2.35-.56-3.61c-.37-1.26-1-2.46-1.89-3.61-.89-1.15-2.08-2.09-3.57-2.84-1.49-.74-3.33-1.12-5.5-1.12h-9.46v22.45h8.94Zm10.58,5.33l16.17,25.8h-10.66l-16.43-25.54,10.92-.26Z" style="fill:#4379c9; stroke-width:0px;"/><path d="m165.72,386.74h41.02v8.86h-31.82v17.8h28.29v8.86h-28.29v18.06h33.02v8.86h-42.23v-62.44Z" style="fill:#4379c9; stroke-width:0px;"/><path d="m215.69,449.18l27.43-64.93h.52l27.43,64.93h-10.49l-19.95-50.57,6.62-4.39-22.53,54.95h-9.03Zm16.68-23.39h22.19l3.18,7.91h-28.12l2.75-7.91Z" style="fill:#4379c9; stroke-width:0px;"/><path d="m282.25,449.18v-64.5h.09l33.2,47.04-3.96-.86,33.02-46.18h.17v64.5h-9.12v-43.77l.6,4.73-23.05,32.59h-.17l-23.48-32.59,1.55-4.3v43.34h-8.86Z" style="fill:#4379c9; stroke-width:0px;"/><path d="m394.82,398.7c-2.18-1.15-4.53-2.12-7.05-2.92-2.52-.8-4.96-1.2-7.31-1.2-3.21,0-5.76.73-7.65,2.19s-2.84,3.46-2.84,5.98c0,1.78.63,3.33,1.89,4.64,1.26,1.32,2.89,2.47,4.9,3.44,2.01.98,4.13,1.89,6.36,2.75,1.89.69,3.77,1.5,5.63,2.45,1.86.95,3.55,2.11,5.07,3.48,1.52,1.38,2.72,3.08,3.61,5.12s1.33,4.51,1.33,7.44c0,3.33-.82,6.34-2.45,9.03-1.63,2.7-3.99,4.83-7.05,6.41-3.07,1.58-6.78,2.37-11.14,2.37-2.64,0-5.2-.3-7.7-.9-2.49-.6-4.85-1.4-7.05-2.41-2.21-1-4.2-2.11-5.98-3.31l4.13-7.14c1.38.98,2.95,1.91,4.73,2.79,1.78.89,3.63,1.59,5.55,2.11s3.74.77,5.46.77c1.89,0,3.75-.33,5.59-.99,1.83-.66,3.35-1.69,4.56-3.1,1.2-1.4,1.81-3.25,1.81-5.55,0-1.95-.53-3.6-1.59-4.94-1.06-1.35-2.47-2.51-4.21-3.48-1.75-.97-3.63-1.83-5.63-2.58-1.95-.74-3.93-1.58-5.93-2.49-2.01-.92-3.87-2.02-5.59-3.31-1.72-1.29-3.11-2.89-4.17-4.82-1.06-1.92-1.59-4.29-1.59-7.09,0-3.32.79-6.24,2.37-8.73,1.58-2.49,3.77-4.46,6.58-5.89,2.81-1.43,6.05-2.24,9.72-2.41,4.18,0,7.83.52,10.92,1.55,3.1,1.03,5.85,2.27,8.26,3.7l-3.53,7.05Z" style="fill:#4379c9; stroke-width:0px;"/><path d="m462.42,386.74v62.44h-9.2v-26.92h-31.65v26.92h-9.2v-62.44h9.2v26.75h31.65v-26.75h9.2Z" style="fill:#4379c9; stroke-width:0px;"/><path d="m473.6,449.18l27.43-64.93h.52l27.43,64.93h-10.49l-19.95-50.57,6.62-4.39-22.53,54.95h-9.03Zm16.68-23.39h22.19l3.18,7.91h-28.12l2.75-7.91Z" style="fill:#4379c9; stroke-width:0px;"/><path d="m557.27,386.74c3.27,0,6.29.44,9.07,1.33,2.78.89,5.16,2.16,7.14,3.83,1.98,1.66,3.53,3.71,4.64,6.15,1.12,2.44,1.68,5.26,1.68,8.47,0,2.47-.37,4.9-1.12,7.31-.75,2.41-1.95,4.59-3.61,6.54-1.66,1.95-3.84,3.51-6.54,4.69-2.7,1.18-6.05,1.76-10.06,1.76h-9.12v22.36h-9.2v-62.44h17.11Zm1.03,31.3c2.35,0,4.31-.37,5.89-1.12,1.58-.74,2.81-1.68,3.7-2.79s1.52-2.32,1.89-3.61c.37-1.29.56-2.54.56-3.74s-.19-2.35-.56-3.61c-.37-1.26-1-2.46-1.89-3.61-.89-1.15-2.08-2.09-3.57-2.84-1.49-.74-3.33-1.12-5.5-1.12h-9.46v22.45h8.94Zm10.58,5.33l16.17,25.8h-10.66l-16.43-25.54,10.92-.26Z" style="fill:#4379c9; stroke-width:0px;"/><path d="m597.35,386.74h41.02v8.86h-31.82v17.8h28.29v8.86h-28.29v18.06h33.02v8.86h-42.23v-62.44Z" style="fill:#4379c9; stroke-width:0px;"/><path d="m386.3,117.61c-35.28-35.28-92.49-35.28-127.77,0-35.28,35.28-35.28,92.49,0,127.77,35.28,35.28,92.49,35.28,127.77,0,35.28-35.28,35.28-92.49,0-127.77Zm-23.52,67.66l-60.14,44.82c-.98.73-2.19,1.11-3.41,1.11-.78,0-1.56-.15-2.3-.47-1.88-.81-3.08-2.52-3.08-4.41v-89.64c0-1.89,1.2-3.6,3.08-4.41,1.88-.81,4.1-.56,5.71.64l60.14,44.82c1.24.93,1.96,2.31,1.96,3.77s-.72,2.84-1.96,3.77Z" style="fill:#4379c9; stroke-width:0px;"/><path d="m153.67,194.26c-7.04,0-12.75-5.71-12.75-12.75,0-48.48,18.88-94.06,53.16-128.34C228.36,18.88,273.94,0,322.42,0c7.04,0,12.75,5.71,12.75,12.75s-5.71,12.75-12.75,12.75c-41.67,0-80.84,16.23-110.3,45.69-29.46,29.46-45.69,68.64-45.69,110.3,0,7.04-5.71,12.75-12.75,12.75Z" style="fill:#4379c9; stroke-width:0px;"/><path d="m201.27,193.33c-6.55,0-11.86-5.31-11.86-11.86,0-35.53,13.83-68.93,38.96-94.05,25.12-25.12,58.52-38.96,94.05-38.96,6.55,0,11.86,5.31,11.86,11.86s-5.31,11.86-11.86,11.86c-29.19,0-56.64,11.37-77.28,32.01-20.64,20.64-32.01,48.09-32.01,77.28,0,6.55-5.31,11.86-11.86,11.86Z" style="fill:#4379c9; stroke-width:0px;"/><path d="m322.49,362.24c-7.04,0-12.75-5.71-12.75-12.75s5.71-12.75,12.75-12.75c41.67,0,80.84-16.23,110.3-45.69,29.46-29.46,45.69-68.64,45.69-110.3,0-7.04,5.71-12.75,12.75-12.75s12.75,5.71,12.75,12.75c0,48.48-18.88,94.06-53.16,128.34-34.28,34.28-79.86,53.16-128.34,53.16Z" style="fill:#4379c9; stroke-width:0px;"/><path d="m322.49,313.77c-6.55,0-11.86-5.31-11.86-11.86s5.31-11.86,11.86-11.86c29.19,0,56.64-11.37,77.28-32.01,20.64-20.64,32.01-48.09,32.01-77.28,0-6.55,5.31-11.86,11.86-11.86s11.86,5.31,11.86,11.86c0,35.53-13.83,68.93-38.96,94.05-25.12,25.12-58.52,38.96-94.05,38.96Z" style="fill:#4379c9; stroke-width:0px;"/></g></svg>